<svg width="1440" height="461" viewBox="0 0 1440 461" fill="none" xmlns="http://www.w3.org/2000/svg">
<path opacity="0.6" d="M80.6156 423.586C42.0409 423.586 0.979553 459.886 0.979553 459.886H1438.6V0.471191C1438.6 0.471191 1389.67 146.507 1351.09 146.507C1312.52 146.507 1302.75 118.909 1264.18 118.909C1225.6 118.909 1226.35 200.363 1187.77 200.363C1153.06 200.363 1148.05 171.267 1089.81 171.267C1054.18 171.267 1058.64 217.465 1020.07 217.465C981.492 217.465 996.682 259.77 958.107 259.77C923.39 259.77 928.703 217.465 890.128 217.465C829.956 217.465 847.932 199.674 809.358 199.674C770.783 199.674 774.404 310.438 735.829 310.438C701.112 310.438 706.898 325.611 668.323 325.611C629.748 325.611 637.463 299.375 598.888 299.375C560.314 299.375 552.599 260.667 514.024 260.667C475.449 260.667 483.164 345.413 448.447 345.413C409.872 345.413 411.801 376.385 373.226 376.385C334.651 376.385 336.58 329.102 298.005 329.102C259.43 329.102 250.333 366.183 215.616 366.183C177.041 366.183 176.519 390.469 137.944 390.469C99.3696 390.469 119.19 423.586 80.6156 423.586Z" fill="url(#paint0_linear_277_735)"/>
<path opacity="0.72" fill-rule="evenodd" clip-rule="evenodd" d="M1366.85 141.396C1361.69 145.494 1356.38 147.992 1351.09 147.992C1331.41 147.992 1319.04 140.928 1306.95 134.026L1306.9 133.998C1294.84 127.11 1283.04 120.394 1264.18 120.394C1255.15 120.394 1248.35 125.121 1242.56 132.551C1236.73 140.027 1232.07 150.038 1227.32 160.263L1227.27 160.366C1222.58 170.471 1217.79 180.78 1211.73 188.551C1205.61 196.393 1198.04 201.848 1187.77 201.848C1172.23 201.848 1162.39 196.119 1151.69 189.878C1150.11 188.961 1148.52 188.032 1146.88 187.109C1134.18 179.927 1118.62 172.752 1089.81 172.752C1073.12 172.752 1065.71 183.255 1057.64 194.674L1057.25 195.224C1053.19 200.979 1048.9 206.934 1043.14 211.419C1037.32 215.949 1030.05 218.95 1020.07 218.95C1010.73 218.95 1004.8 221.498 1000.5 225.201C996.135 228.965 993.329 234.008 990.384 239.337L990.324 239.444C987.442 244.659 984.409 250.146 979.604 254.286C974.696 258.515 968.055 261.256 958.107 261.256C949.082 261.256 942.582 258.491 937.342 254.323C932.46 250.44 928.696 245.348 925.024 240.382C924.807 240.088 924.591 239.795 924.374 239.503C920.448 234.202 916.532 229.093 911.272 225.278C906.063 221.501 899.468 218.95 890.128 218.95C859.863 218.95 849.045 214.47 840.914 209.862C840.002 209.346 839.14 208.838 838.299 208.343C835.418 206.647 832.792 205.1 829.293 203.853C824.818 202.258 818.887 201.159 809.358 201.159C800.562 201.159 793.939 207.435 788.319 217.696C782.716 227.925 778.39 241.614 774.006 255.504L773.973 255.61C769.629 269.377 765.224 283.334 759.466 293.846C753.711 304.354 746.321 311.924 735.829 311.924C727.261 311.924 721.254 312.859 716.468 314.237C711.916 315.547 708.421 317.268 704.764 319.068C704.568 319.165 704.372 319.261 704.175 319.358C700.301 321.263 696.213 323.215 690.637 324.677C685.066 326.138 678.065 327.096 668.323 327.096C658.502 327.096 651.533 325.424 646.002 322.859C640.515 320.315 636.528 316.925 632.695 313.667L632.647 313.625C628.779 310.338 625.062 307.186 619.964 304.822C614.887 302.468 608.355 300.86 598.888 300.86C579.064 300.86 567.129 290.88 555.597 281.238L555.507 281.162C543.921 271.474 532.722 262.153 514.024 262.153C505.052 262.153 498.704 267.029 493.622 274.728C488.502 282.486 484.82 292.89 481.191 303.521C480.994 304.098 480.797 304.676 480.6 305.254C477.203 315.225 473.781 325.269 469.186 332.936C464.301 341.087 457.876 346.898 448.447 346.898C439.018 346.898 432.133 348.787 426.502 351.583C420.84 354.396 416.388 358.15 411.792 362.034L411.74 362.079C407.19 365.924 402.494 369.893 396.487 372.876C390.424 375.887 383.085 377.87 373.226 377.87C353.213 377.87 343.645 365.525 334.54 353.777L334.445 353.655C325.255 341.798 316.497 330.588 298.005 330.588C279.279 330.588 267.719 339.538 256.296 348.798C255.964 349.066 255.632 349.336 255.301 349.605C244.249 358.576 233.049 367.668 215.616 367.668C196.75 367.668 187.265 373.56 177.568 379.584L177.561 379.588C167.712 385.706 157.649 391.954 137.944 391.954C128.516 391.954 122.863 393.975 119.022 396.835C115.139 399.726 112.932 403.588 110.569 407.76L110.513 407.859C108.203 411.938 105.727 416.311 101.306 419.603C96.8097 422.952 90.4745 425.071 80.6156 425.071C61.7382 425.071 42.114 433.975 27.0948 443.009C19.6089 447.512 13.3167 452.017 8.89695 455.395C6.68781 457.084 4.94837 458.49 3.76358 459.471C3.17123 459.962 2.71766 460.346 2.4135 460.607C2.26142 460.738 2.1467 460.837 2.07068 460.903L1.98583 460.977L1.96088 460.999L1.95998 461L0.979536 459.886C-0.000949288 458.773 -0.000539363 458.772 2.69476e-05 458.772L0.00858515 458.764L0.0330592 458.743C0.0543273 458.724 0.0854728 458.697 0.126329 458.661C0.208042 458.59 0.328604 458.485 0.486686 458.35C0.80284 458.079 1.26912 457.684 1.87488 457.182C3.08632 456.178 4.85616 454.748 7.09924 453.033C11.584 449.605 17.968 445.035 25.5693 440.463C40.7244 431.347 60.9183 422.101 80.6156 422.101C90.0441 422.101 95.6968 420.08 99.5384 417.219C103.421 414.328 105.628 410.466 107.991 406.294L108.047 406.196C110.357 402.117 112.833 397.743 117.254 394.451C121.75 391.103 128.085 388.984 137.944 388.984C156.81 388.984 166.295 383.092 175.992 377.068L175.999 377.064C185.848 370.946 195.911 364.698 215.616 364.698C231.986 364.698 242.445 356.213 253.631 347.137C253.898 346.921 254.164 346.705 254.432 346.488C265.88 337.208 278.156 327.617 298.005 327.617C318.019 327.617 327.586 339.963 336.691 351.71L336.786 351.833C345.976 363.69 354.734 374.9 373.226 374.9C382.654 374.9 389.54 373.011 395.17 370.215C400.833 367.403 405.285 363.648 409.881 359.764L409.933 359.72C414.483 355.874 419.179 351.905 425.186 348.922C431.249 345.911 438.588 343.928 448.447 343.928C456.376 343.928 462.006 339.146 466.644 331.407C471.071 324.021 474.399 314.259 477.837 304.17C478.02 303.634 478.203 303.097 478.386 302.56C481.99 292.004 485.783 281.222 491.15 273.09C496.555 264.899 503.709 259.182 514.024 259.182C533.849 259.182 545.783 269.162 557.315 278.805L557.406 278.881C568.991 288.569 580.19 297.89 598.888 297.89C608.709 297.89 615.678 299.562 621.209 302.127C626.696 304.671 630.683 308.061 634.516 311.319L634.564 311.36C638.432 314.648 642.149 317.8 647.247 320.164C652.324 322.518 658.856 324.126 668.323 324.126C677.868 324.126 684.61 323.187 689.887 321.803C695.161 320.42 699.029 318.58 702.87 316.691C703.078 316.589 703.287 316.486 703.496 316.383C707.132 314.592 710.838 312.767 715.65 311.382C720.749 309.914 727.038 308.953 735.829 308.953C744.624 308.953 751.247 302.678 756.868 292.417C762.471 282.188 766.797 268.499 771.18 254.609L771.213 254.503C775.558 240.736 779.962 226.779 785.72 216.267C791.476 205.759 798.865 198.189 809.358 198.189C819.115 198.189 825.403 199.314 830.287 201.055C834.076 202.405 837.003 204.131 839.926 205.853C840.736 206.331 841.546 206.808 842.373 207.277C849.941 211.565 860.22 215.98 890.128 215.98C900.075 215.98 907.282 218.718 913.01 222.872C918.688 226.99 922.847 232.457 926.754 237.733C926.949 237.995 927.143 238.257 927.336 238.519C931.072 243.569 934.619 248.365 939.185 251.997C943.919 255.762 949.774 258.285 958.107 258.285C967.447 258.285 973.373 255.737 977.671 252.034C982.04 248.27 984.845 243.227 987.791 237.898L987.85 237.791C990.732 232.576 993.765 227.089 998.571 222.949C1003.48 218.72 1010.12 215.98 1020.07 215.98C1029.37 215.98 1036.01 213.207 1041.32 209.074C1046.68 204.897 1050.74 199.302 1054.83 193.508C1055.02 193.239 1055.22 192.969 1055.41 192.7C1063.33 181.47 1071.58 169.782 1089.81 169.782C1119.25 169.782 1135.31 177.155 1148.34 184.521C1150.02 185.469 1151.64 186.411 1153.22 187.333C1163.93 193.56 1173.07 198.878 1187.77 198.878C1196.8 198.878 1203.6 194.151 1209.39 186.721C1215.22 179.246 1219.88 169.235 1224.63 159.01L1224.68 158.906C1229.37 148.801 1234.16 138.492 1240.22 130.722C1246.34 122.879 1253.91 117.424 1264.18 117.424C1283.86 117.424 1296.23 124.488 1308.32 131.39L1308.37 131.418C1320.43 138.306 1332.23 145.022 1351.09 145.022C1355.45 145.022 1360.11 142.956 1365.01 139.068C1369.89 135.189 1374.88 129.6 1379.84 122.811C1389.77 109.236 1399.46 91.0829 1407.97 72.8595C1416.47 54.6498 1423.78 36.4323 1428.96 22.7621C1431.55 15.9284 1433.61 10.2343 1435.02 6.24998C1435.73 4.25787 1436.27 2.69334 1436.64 1.62767C1436.82 1.09484 1436.96 0.686735 1437.05 0.412273L1437.18 0.0240229L1437.19 0.00475127L1437.19 8.16885e-05C1437.19 -0.000866457 1437.19 -0.00125972 1438.6 0.471435C1440 0.944131 1440 0.944852 1440 0.946127L1440 0.951455L1439.99 0.972049L1439.96 1.05263C1439.94 1.12372 1439.9 1.22937 1439.86 1.36845C1439.76 1.64661 1439.62 2.05853 1439.44 2.5953C1439.07 3.66881 1438.52 5.24176 1437.81 7.2428C1436.4 11.2448 1434.33 16.9597 1431.73 23.8168C1426.54 37.5283 1419.2 55.8195 1410.65 74.1187C1402.11 92.4041 1392.33 110.76 1382.24 124.567C1377.19 131.468 1372.02 137.288 1366.85 141.396Z" fill="#464E86"/>
<defs>
<linearGradient id="paint0_linear_277_735" x1="719.788" y1="0.471191" x2="719.788" y2="418.796" gradientUnits="userSpaceOnUse">
<stop stop-color="#4D5694"/>
<stop offset="1" stop-color="#464E86" stop-opacity="0"/>
</linearGradient>
</defs>
</svg>
