<svg width="218" height="64" viewBox="0 0 218 64" fill="none" xmlns="http://www.w3.org/2000/svg">
<path d="M2.5942 34.8719C1.46236 35.304 1.07879 35.4076 0 36.0921C3.22122 44.6206 11.2867 50.6668 20.7268 50.6668C21.7884 50.6668 23.8544 50.4425 23.8544 50.4425C23.8544 50.4425 21.1223 50.6376 19.6757 50.503C16.072 50.1677 13.3955 49.2643 10.9763 47.3922C6.40477 43.8546 3.81126 40.6162 2.5942 34.8719Z" fill="#676C8E"/>
<path d="M29.4523 39.2645C29.0019 38.2108 27.7983 36.3844 26.9979 35.3725C26.1323 34.2783 25.0125 33.2517 23.9558 32.3167C20.109 29.0418 15.3307 26.2814 9.94419 26.2814C9.32975 26.2814 7.40081 26.4504 7.40081 26.4504C7.40081 26.4504 7.29707 26.0337 7.24126 25.6808C7.04606 24.4466 6.90666 23.658 6.7858 22.4933C8.37519 22.4933 10.5177 22.4932 12.6901 22.9707C13.9409 23.2457 14.819 23.5245 15.8337 23.9156C16.4042 24.1355 16.9636 24.3788 17.5107 24.6444C19.216 25.4721 20.8022 26.5162 22.236 27.742C22.7666 28.1957 23.2764 28.6744 23.7635 29.1762C25.4275 30.8901 26.8279 32.8744 27.8968 35.0592C28.4692 36.229 28.9465 37.4563 29.3184 38.7305C29.3676 38.8992 29.4111 39.0807 29.4523 39.2645Z" fill="#676C8E"/>
<path fill-rule="evenodd" clip-rule="evenodd" d="M31.1872 26.2328C31.1872 26.2328 32.9543 28.156 33.7517 29.6189C35.0124 31.9318 35.404 33.6114 35.5203 36.1592C35.5914 37.7155 35.392 39.4423 35.0075 41.0752C34.5277 42.6178 33.9014 43.9905 33.0204 45.2238C32.6559 45.7339 32.248 46.2202 31.7887 46.6848C31.1377 47.3435 30.3838 47.9587 29.5051 48.5365C27.3687 49.9412 23.4621 50.3946 19.6757 50.0423C16.1859 49.7176 13.6926 48.4602 11.3827 46.6727C9.06778 44.8814 7.41911 43.0584 6.20195 40.9569C5.04835 38.9651 4.26485 36.6931 3.68618 33.9055C3.65328 33.747 3.62105 33.5869 3.58945 33.425C3.37065 32.3045 3.28872 31.6113 3.20929 30.5256C3.17716 30.0865 3.18338 29.1988 3.19196 28.7138C3.19196 28.7138 4.25576 28.4501 4.94604 28.3268C5.11395 28.2968 5.45918 28.2413 5.45918 28.2413C5.45918 28.2413 6.2436 28.1175 6.75165 28.0469C7.77989 27.9038 8.98056 27.7672 9.78356 27.7672C15.0046 27.7672 18.9679 29.3201 23.5198 32.8468C24.7647 33.8114 26.5025 35.5739 26.5025 35.5739C26.5025 35.5739 28.6308 37.6989 29.4525 39.2649C29.7539 38.4884 30.0425 37.0716 30.0487 36.4368C30.1106 35.2924 29.9471 34.4594 29.7539 33.5175C29.5583 32.5643 29.2014 31.6466 28.8286 30.7751C28.3794 29.7467 27.3472 28.4834 26.2322 27.1188L26.2318 27.1184C26.0615 26.91 25.8893 26.6992 25.717 26.4866C25.5899 26.3298 25.481 26.2035 25.3647 26.0687L25.3645 26.0685C25.279 25.9694 25.1896 25.8657 25.086 25.7418C24.7992 25.3989 24.358 24.8582 24.358 24.8582C24.358 24.8582 23.7605 24.0797 23.555 23.6875C23.3642 23.3233 23.0877 22.7532 22.9053 22.1116C22.677 21.3089 22.6181 20.6724 22.6181 19.9907C22.6181 18.4608 22.9905 17.3021 23.9428 15.9106C25.3991 13.7829 27.4316 13.1051 29.9474 13.3984C31.5212 13.5818 32.7185 14.3223 33.655 15.0877C34.374 15.6754 34.9983 16.38 35.5006 17.1736C36.1661 18.2249 36.6176 19.4324 36.7915 20.7308C36.2851 19.3142 35.5006 18.537 34.5333 18.2067C35.3043 18.9335 35.3001 20.7308 34.5776 21.2257C34.3611 21.374 34.1804 21.4291 33.9575 21.4761C33.8296 21.5031 33.6971 21.5173 33.5613 21.5173C32.7908 21.5173 32.1241 21.0603 31.8042 20.3956C31.675 20.1271 31.6032 19.7667 31.6032 19.4469C31.2833 18.7823 30.6166 18.3253 29.846 18.3253C27.8533 18.3253 27.2227 19.4702 27.2227 20.6771C27.2232 21.9417 27.8949 22.7081 28.7039 23.6313C28.851 23.799 29.0025 23.9719 29.1554 24.154C29.4406 24.4936 31.1872 26.2328 31.1872 26.2328ZM34.809 22.1483C35.0973 23.1162 35.576 23.8157 36.4804 24.561C37.0524 25.0325 37.4664 25.2572 38.131 25.4813C38.2921 25.5356 38.4072 25.568 38.5488 25.6027C38.4464 25.5112 38.1729 25.2469 37.9633 24.9898C37.6261 24.576 37.1979 23.7393 37.1979 23.7393C37.1979 23.7393 36.9028 23.0419 36.8623 22.5842C36.8589 22.5461 36.8558 22.5149 36.8531 22.4869C36.8454 22.4093 36.8402 22.3563 36.8378 22.2505C36.8336 22.0657 36.8326 21.8869 36.8317 21.7163C36.8309 21.5819 36.8302 21.4525 36.828 21.3295C36.828 21.3295 36.3864 21.335 35.7439 21.5557C35.1014 21.7764 34.809 22.1483 34.809 22.1483Z" fill="#676C8E"/>
<path d="M53.1707 25.2945C53.1707 24.8362 53.5503 24.4647 54.0185 24.4647H56.3987C56.9364 24.4647 57.4423 24.7144 57.762 25.1376L66.013 36.059V25.2945C66.013 24.8362 66.3926 24.4647 66.8608 24.4647H68.8921C69.3603 24.4647 69.7399 24.8362 69.7399 25.2945V40.0388C69.7399 40.4971 69.3603 40.8686 68.8921 40.8686H66.4163C65.879 40.8686 65.3734 40.6193 65.0536 40.1965L56.8976 29.4138V40.0388C56.8976 40.4971 56.518 40.8686 56.0498 40.8686H54.0185C53.5503 40.8686 53.1707 40.4971 53.1707 40.0388V25.2945Z" fill="#676C8E"/>
<path d="M85.298 41.3333C83.2249 41.3333 81.4604 40.9693 80.0044 40.2413C78.5485 39.5133 77.4724 38.4754 76.7761 37.1278C76.4279 36.5392 76.1668 35.8654 75.9927 35.1063C75.8186 34.3473 75.7316 33.5341 75.7316 32.6667C75.7316 31.1332 76.0006 29.7933 76.5387 28.647C77.2034 27.16 78.2874 26.0137 79.7908 25.2082C81.31 24.4027 83.1537 24 85.3218 24C87.474 24 89.3019 24.4027 90.8053 25.2082C92.3087 25.9982 93.3927 27.1212 94.0574 28.5773C94.6113 29.7545 94.8882 31.1177 94.8882 32.6667C94.8882 34.2466 94.6034 35.633 94.0336 36.8257C93.3532 38.2663 92.2612 39.3816 90.7578 40.1716C89.2702 40.9461 87.4503 41.3333 85.298 41.3333ZM85.3218 38.1037C86.5562 38.1037 87.5927 37.8791 88.4315 37.4298C89.286 36.9806 89.9111 36.3301 90.3068 35.4781C90.6391 34.6881 90.8053 33.751 90.8053 32.6667C90.8053 32.0935 90.7578 31.5824 90.6628 31.1332C90.5837 30.6685 90.4571 30.2347 90.283 29.832C89.8874 28.9955 89.2623 28.3527 88.4077 27.9035C87.569 27.4543 86.5324 27.2297 85.298 27.2297C84.0637 27.2297 83.0271 27.4543 82.1883 27.9035C81.3496 28.3527 80.7324 28.9955 80.3368 29.832C80.1627 30.2347 80.0282 30.6685 79.9332 31.1332C79.8541 31.5824 79.8145 32.0935 79.8145 32.6667C79.8145 33.7665 79.9886 34.7036 80.3368 35.4781C80.7324 36.3301 81.3496 36.9806 82.1883 37.4298C83.0429 37.8791 84.0874 38.1037 85.3218 38.1037Z" fill="#676C8E"/>
<path d="M100.57 25.2945C100.57 24.8362 100.95 24.4647 101.418 24.4647H103.52C103.989 24.4647 104.368 24.8362 104.368 25.2945V37.4553C104.368 37.6081 104.495 37.7319 104.651 37.7319H109.761C110.229 37.7319 110.609 38.1034 110.609 38.5617V40.0388C110.609 40.4971 110.229 40.8686 109.761 40.8686H101.418C100.95 40.8686 100.57 40.4971 100.57 40.0388V25.2945Z" fill="#676C8E"/>
<path d="M125.156 41.3333C123.082 41.3333 121.318 40.9693 119.862 40.2413C118.406 39.5133 117.33 38.4754 116.634 37.1278C116.285 36.5392 116.024 35.8654 115.85 35.1063C115.676 34.3473 115.589 33.5341 115.589 32.6667C115.589 31.1332 115.858 29.7933 116.396 28.647C117.061 27.16 118.145 26.0137 119.648 25.2082C121.168 24.4027 123.011 24 125.179 24C127.332 24 129.159 24.4027 130.663 25.2082C132.166 25.9982 133.25 27.1212 133.915 28.5773C134.469 29.7545 134.746 31.1177 134.746 32.6667C134.746 34.2466 134.461 35.633 133.891 36.8257C133.211 38.2663 132.119 39.3816 130.615 40.1716C129.128 40.9461 127.308 41.3333 125.156 41.3333ZM125.179 38.1037C126.414 38.1037 127.45 37.8791 128.289 37.4298C129.144 36.9806 129.769 36.3301 130.164 35.4781C130.497 34.6881 130.663 33.751 130.663 32.6667C130.663 32.0935 130.615 31.5824 130.52 31.1332C130.441 30.6685 130.315 30.2347 130.141 29.832C129.745 28.9955 129.12 28.3527 128.265 27.9035C127.427 27.4543 126.39 27.2297 125.156 27.2297C123.921 27.2297 122.885 27.4543 122.046 27.9035C121.207 28.3527 120.59 28.9955 120.194 29.832C120.02 30.2347 119.886 30.6685 119.791 31.1332C119.712 31.5824 119.672 32.0935 119.672 32.6667C119.672 33.7665 119.846 34.7036 120.194 35.4781C120.59 36.3301 121.207 36.9806 122.046 37.4298C122.9 37.8791 123.945 38.1037 125.179 38.1037Z" fill="#676C8E"/>
<path d="M144.825 33.7355L138.491 24.9002C138.36 24.7169 138.493 24.4647 138.722 24.4647H142.101C142.38 24.4647 142.641 24.5992 142.799 24.8244L146.724 30.4129L150.65 24.8244C150.808 24.5992 151.069 24.4647 151.348 24.4647H154.704C154.932 24.4647 155.066 24.7165 154.936 24.8998L148.623 33.7355V40.0388C148.623 40.4971 148.244 40.8686 147.776 40.8686H145.673C145.205 40.8686 144.825 40.4971 144.825 40.0388V33.7355Z" fill="#676C8E"/>
<path d="M168.552 41.3333C166.479 41.3333 164.715 40.9693 163.259 40.2413C161.803 39.5133 160.727 38.4754 160.03 37.1278C159.682 36.5392 159.421 35.8654 159.247 35.1063C159.073 34.3473 158.986 33.5341 158.986 32.6667C158.986 31.1332 159.255 29.7933 159.793 28.647C160.458 27.16 161.542 26.0137 163.045 25.2082C164.564 24.4027 166.408 24 168.576 24C170.728 24 172.556 24.4027 174.059 25.2082C175.563 25.9982 176.647 27.1212 177.312 28.5773C177.865 29.7545 178.142 31.1177 178.142 32.6667C178.142 34.2466 177.858 35.633 177.288 36.8257C176.607 38.2663 175.515 39.3816 174.012 40.1716C172.524 40.9461 170.704 41.3333 168.552 41.3333ZM168.576 38.1037C169.81 38.1037 170.847 37.8791 171.686 37.4298C172.54 36.9806 173.165 36.3301 173.561 35.4781C173.893 34.6881 174.059 33.751 174.059 32.6667C174.059 32.0935 174.012 31.5824 173.917 31.1332C173.838 30.6685 173.711 30.2347 173.537 29.832C173.142 28.9955 172.516 28.3527 171.662 27.9035C170.823 27.4543 169.787 27.2297 168.552 27.2297C167.318 27.2297 166.281 27.4543 165.443 27.9035C164.604 28.3527 163.987 28.9955 163.591 29.832C163.417 30.2347 163.282 30.6685 163.187 31.1332C163.108 31.5824 163.069 32.0935 163.069 32.6667C163.069 33.7665 163.243 34.7036 163.591 35.4781C163.987 36.3301 164.604 36.9806 165.443 37.4298C166.297 37.8791 167.342 38.1037 168.576 38.1037Z" fill="#676C8E"/>
<path d="M183.824 25.2945C183.824 24.8362 184.204 24.4647 184.672 24.4647H186.775C187.243 24.4647 187.622 24.8362 187.622 25.2945V37.4553C187.622 37.6081 187.749 37.7319 187.905 37.7319H193.015C193.484 37.7319 193.863 38.1034 193.863 38.5617V40.0388C193.863 40.4971 193.484 40.8686 193.015 40.8686H184.672C184.204 40.8686 183.824 40.4971 183.824 40.0388V25.2945Z" fill="#676C8E"/>
<path d="M208.41 41.3333C206.337 41.3333 204.572 40.9693 203.116 40.2413C201.66 39.5133 200.584 38.4754 199.888 37.1278C199.54 36.5392 199.279 35.8654 199.104 35.1063C198.93 34.3473 198.843 33.5341 198.843 32.6667C198.843 31.1332 199.112 29.7933 199.65 28.647C200.315 27.16 201.399 26.0137 202.903 25.2082C204.422 24.4027 206.265 24 208.434 24C210.586 24 212.414 24.4027 213.917 25.2082C215.42 25.9982 216.504 27.1212 217.169 28.5773C217.723 29.7545 218 31.1177 218 32.6667C218 34.2466 217.715 35.633 217.145 36.8257C216.465 38.2663 215.373 39.3816 213.87 40.1716C212.382 40.9461 210.562 41.3333 208.41 41.3333ZM208.434 38.1037C209.668 38.1037 210.704 37.8791 211.543 37.4298C212.398 36.9806 213.023 36.3301 213.419 35.4781C213.751 34.6881 213.917 33.751 213.917 32.6667C213.917 32.0935 213.87 31.5824 213.775 31.1332C213.695 30.6685 213.569 30.2347 213.395 29.832C212.999 28.9955 212.374 28.3527 211.519 27.9035C210.681 27.4543 209.644 27.2297 208.41 27.2297C207.175 27.2297 206.139 27.4543 205.3 27.9035C204.461 28.3527 203.844 28.9955 203.449 29.832C203.274 30.2347 203.14 30.6685 203.045 31.1332C202.966 31.5824 202.926 32.0935 202.926 32.6667C202.926 33.7665 203.1 34.7036 203.449 35.4781C203.844 36.3301 204.461 36.9806 205.3 37.4298C206.155 37.8791 207.199 38.1037 208.434 38.1037Z" fill="#676C8E"/>
</svg>
