<svg width="52" height="48" viewBox="0 0 52 48" fill="none" xmlns="http://www.w3.org/2000/svg">
<path d="M3.31371 27.8741C1.76429 28.4545 1.67143 28.4545 0 29.2611C4.34524 40.2262 15.2251 48 27.9593 48C30 48 32.1782 47.7116 32.1782 47.7116C32.1782 47.7116 28.4928 47.9625 26.5413 47.7894C21.6802 47.3583 18.0697 46.3786 14.8063 43.9716C8.63966 39.4232 4.95545 35.2596 3.31371 27.8741Z" fill="#EAEAEA"/>
<path d="M39.7297 33.3404C39.1221 31.9858 37.4983 29.6369 36.4185 28.3359C35.2509 26.9291 33.7404 25.6091 32.3149 24.407C27.1258 20.1964 20.3087 16.4655 13.0427 16.4655C12.2138 16.4655 9.79754 16.5009 9.79754 16.5009C9.79754 16.5009 9.63957 15.181 9.56429 14.7273C9.37815 13.6055 9.28571 13 9.15364 11.777C11.2976 11.7769 14.1877 11.7768 17.1182 12.3908C18.8055 12.7442 19.99 13.1027 21.3587 13.6055C22.1283 13.8883 22.8829 14.2011 23.6209 14.5426C25.9212 15.6068 28.061 16.9491 29.995 18.5253C30.7108 19.1086 31.3984 19.724 32.0556 20.3692C34.3002 22.5728 36.1892 25.124 37.6311 27.933C38.4032 29.4371 39.0471 31.0151 39.5487 32.6533C39.6151 32.8702 39.6742 33.1042 39.7297 33.3404Z" fill="#EAEAEA"/>
<path fill-rule="evenodd" clip-rule="evenodd" d="M42.0696 16.5848C42.0696 16.5848 44.4534 19.0575 45.529 20.9383C47.2297 23.9122 47.7579 26.0716 47.9148 29.3474C48.0106 31.3483 47.7417 33.5685 47.223 35.6679C46.5758 37.6513 45.7309 39.4161 44.5425 41.0018C44.0509 41.6577 43.5006 42.2829 42.8811 42.8803C42.0029 43.7272 40.9859 44.5181 39.8006 45.261C36.9188 47.0671 31.649 47.65 26.5413 47.197C21.8338 46.7795 18.4705 45.163 15.3546 42.8647C12.2319 40.5615 10.0079 38.2177 8.36606 35.5158C6.80993 32.955 5.75303 30.0337 4.97243 26.4497C4.92806 26.2459 4.88458 26.04 4.84195 25.832C4.54681 24.3913 4.43629 23.5 4.32914 22.1041C4.2858 21.5396 4.29419 20.3982 4.30576 19.7747C4.30576 19.7747 5.74077 19.4356 6.67192 19.2771C6.89841 19.2385 7.36411 19.1672 7.36411 19.1672C7.36411 19.1672 8.42224 19.008 9.10757 18.9172C10.4946 18.7333 12.1142 18.5576 13.1974 18.5576C20.2403 18.5576 25.5866 20.5543 31.7268 25.0885C33.4061 26.3287 35.7503 28.5948 35.7503 28.5948C35.7503 28.5948 38.6212 31.327 39.7297 33.3404C40.1362 32.342 40.5255 30.5204 40.5339 29.7042C40.6175 28.2329 40.3968 27.1618 40.1362 25.9509C39.8724 24.7254 39.3909 23.5455 38.8881 22.425C38.2821 21.1027 36.8897 19.4785 35.3856 17.724C35.1559 17.456 34.9231 17.1845 34.6906 16.9111C34.5192 16.7095 34.3723 16.5472 34.2154 16.3738C34.1001 16.2464 33.9792 16.1128 33.8395 15.9536C33.4526 15.5127 32.8575 14.8175 32.8575 14.8175C32.8575 14.8175 32.0515 13.8166 31.7743 13.3123C31.5169 12.844 31.1439 12.111 30.8978 11.2862C30.59 10.2541 30.5104 9.43578 30.5104 8.55924C30.5104 6.59227 31.0128 5.10252 32.2975 3.31341C34.2618 0.577748 37.0035 -0.293669 40.3972 0.083403C42.5202 0.319297 44.1353 1.27134 45.3986 2.25546C46.3684 3.01097 47.2106 3.91691 47.8882 4.93723C48.7859 6.28896 49.3949 7.84145 49.6295 9.51086C48.9464 7.68946 47.8882 6.69027 46.5833 6.26549C47.6233 7.2 47.6177 9.51086 46.6432 10.1471C46.3511 10.3378 46.1073 10.4087 45.8067 10.4691C45.6341 10.5038 45.4553 10.5221 45.2722 10.5221C44.2328 10.5221 43.3335 9.93441 42.902 9.07991C42.7277 8.73468 42.6308 8.27131 42.6308 7.86012C42.1993 7.00562 41.3 6.41797 40.2605 6.41797C37.5724 6.41797 36.7217 7.8901 36.7217 9.44182C36.7225 11.0677 37.6285 12.053 38.7199 13.24C38.9182 13.4556 39.1227 13.678 39.3289 13.912C39.7137 14.3487 42.0696 16.5848 42.0696 16.5848ZM46.9552 11.3333C47.3441 12.5778 47.9899 13.4771 49.2099 14.4354C49.9815 15.0416 50.5399 15.3304 51.4364 15.6185C51.6537 15.6884 51.809 15.7301 52 15.7747C51.8619 15.657 51.4929 15.3173 51.2102 14.9867C50.7554 14.4546 50.1778 13.3789 50.1778 13.3789C50.1778 13.3789 49.7796 12.4823 49.725 11.8938C49.7204 11.8448 49.7163 11.8047 49.7126 11.7687C49.7023 11.6689 49.6953 11.6008 49.692 11.4647C49.6863 11.2272 49.685 10.9972 49.6837 10.7779C49.6827 10.6051 49.6818 10.4388 49.6787 10.2806C49.6787 10.2806 49.0831 10.2877 48.2164 10.5714C47.3498 10.8552 46.9552 11.3333 46.9552 11.3333Z" fill="#EAEAEA"/>
</svg>
