<svg width="80" height="80" viewBox="0 0 80 80" fill="none" xmlns="http://www.w3.org/2000/svg">
<path d="M40 0C17.9446 0 0 17.9431 0 40C0 62.0569 17.9446 80 40 80C62.0554 80 80 62.0569 80 40C80 17.9431 62.0554 0 40 0ZM40 76.9231C19.6415 76.9231 3.07692 60.3585 3.07692 40C3.07692 19.6415 19.6415 3.07692 40 3.07692C60.3585 3.07692 76.9231 19.6415 76.9231 40C76.9231 60.3585 60.3585 76.9231 40 76.9231Z" fill="#45C4A2"/>
<path d="M58.8492 23.5938L35.2046 50.1938L20.96 38.7984C20.2985 38.2677 19.3277 38.3769 18.7985 39.0384C18.2677 39.7031 18.3754 40.6707 19.0385 41.2015L34.4231 53.5092C34.7061 53.7354 35.0461 53.8461 35.3846 53.8461C35.8092 53.8461 36.2323 53.6708 36.5354 53.3292L61.1508 25.6369C61.7154 25.0031 61.6585 24.0292 61.0231 23.4661C60.3862 22.9 59.4154 22.9569 58.8492 23.5938Z" fill="#45C4A2"/>
</svg>
