<svg width="80" height="80" viewBox="0 0 80 80" fill="none" xmlns="http://www.w3.org/2000/svg">
<path d="M40 0C17.9446 0 0 17.9431 0 40C0 62.0569 17.9446 80 40 80C62.0554 80 80 62.0569 80 40C80 17.9431 62.0554 0 40 0ZM40 76.9231C19.6415 76.9231 3.07692 60.3585 3.07692 40C3.07692 19.6415 19.6415 3.07692 40 3.07692C60.3585 3.07692 76.9231 19.6415 76.9231 40C76.9231 60.3585 60.3585 76.9231 40 76.9231Z" fill="#D88394"/>
<path d="M54.9338 25.0661C54.3323 24.4646 53.36 24.4646 52.7585 25.0661L40 37.8246L27.2415 25.0661C26.64 24.4646 25.6677 24.4646 25.0661 25.0661C24.4646 25.6677 24.4646 26.64 25.0661 27.2415L37.8246 40L25.0661 52.7585C24.4646 53.36 24.4646 54.3323 25.0661 54.9338C25.3661 55.2338 25.76 55.3846 26.1538 55.3846C26.5477 55.3846 26.9415 55.2338 27.2415 54.9338L40 42.1754L52.7585 54.9338C53.0585 55.2338 53.4523 55.3846 53.8461 55.3846C54.24 55.3846 54.6338 55.2338 54.9338 54.9338C55.5354 54.3323 55.5354 53.36 54.9338 52.7585L42.1754 40L54.9338 27.2415C55.5354 26.64 55.5354 25.6677 54.9338 25.0661Z" fill="#D88394"/>
</svg>
