<svg width="164" height="48" viewBox="0 0 164 48" fill="none" xmlns="http://www.w3.org/2000/svg">
<path d="M1.9516 26.1538C1.10012 26.4779 0.811567 26.5556 0 27.069C2.4233 33.4653 8.4909 38 15.5927 38C16.3913 38 17.9455 37.8318 17.9455 37.8318C17.9455 37.8318 15.8902 37.9781 14.8019 37.8771C12.0909 37.6257 10.0773 36.9481 8.25736 35.544C4.81827 32.8908 2.86719 30.462 1.9516 26.1538Z" fill="#D0D2DD"/>
<path d="M22.1568 29.4482C21.8179 28.658 20.9125 27.2882 20.3103 26.5293C19.6592 25.7086 18.8168 24.9386 18.0218 24.2374C15.1278 21.7812 11.5332 19.7109 7.48095 19.7109C7.01871 19.7109 5.56758 19.8377 5.56758 19.8377C5.56758 19.8377 5.48954 19.5252 5.44755 19.2605C5.30071 18.3349 5.19583 17.7434 5.10492 16.8699C6.3006 16.8698 7.91239 16.8698 9.54671 17.2279C10.4877 17.4341 11.1483 17.6432 11.9116 17.9366C12.3408 18.1015 12.7616 18.284 13.1732 18.4832C14.4561 19.104 15.6494 19.887 16.728 20.8064C17.1272 21.1467 17.5107 21.5057 17.8772 21.882C19.129 23.1675 20.1824 24.6556 20.9866 26.2942C21.4172 27.1716 21.7763 28.0921 22.056 29.0478C22.0931 29.1743 22.1258 29.3104 22.1568 29.4482Z" fill="#D0D2DD"/>
<path fill-rule="evenodd" clip-rule="evenodd" d="M23.4619 19.6745C23.4619 19.6745 24.7913 21.1169 25.3912 22.214C26.3396 23.9488 26.6342 25.2084 26.7217 27.1193C26.7752 28.2865 26.6252 29.5816 26.3359 30.8063C25.975 31.9632 25.5038 32.9927 24.841 33.9177C24.5669 34.3003 24.2599 34.665 23.9145 35.0135C23.4247 35.5075 22.8575 35.9689 22.1965 36.4022C20.5893 37.4558 17.6504 37.7958 14.8019 37.5316C12.1765 37.2881 10.3009 36.3451 8.56313 35.0044C6.82163 33.6609 5.58135 32.2937 4.66569 30.7175C3.79784 29.2237 3.20842 27.5197 2.77309 25.429C2.74834 25.3101 2.72409 25.19 2.70032 25.0686C2.53572 24.2283 2.47408 23.7083 2.41433 22.8941C2.39016 22.5648 2.39484 21.899 2.40129 21.5352C2.40129 21.5352 3.20158 21.3374 3.72088 21.2449C3.84719 21.2225 4.10691 21.1809 4.10691 21.1809C4.10691 21.1809 4.69702 21.088 5.07922 21.035C5.85276 20.9278 6.75602 20.8253 7.36011 20.8253C11.2879 20.8253 14.2695 21.99 17.6938 24.635C18.6304 25.3584 19.9376 26.6803 19.9376 26.6803C19.9376 26.6803 21.5387 28.2741 22.1569 29.4486C22.3836 28.8662 22.6008 27.8036 22.6054 27.3275C22.652 26.4692 22.529 25.8444 22.3836 25.138C22.2365 24.4231 21.968 23.7349 21.6876 23.0812C21.3496 22.3099 20.5731 21.3624 19.7343 20.339L19.734 20.3387C19.6059 20.1824 19.4764 20.0243 19.3467 19.8648C19.2511 19.7472 19.1692 19.6525 19.0817 19.5514L19.0816 19.5513C19.0173 19.4769 18.9499 19.3991 18.872 19.3062C18.6563 19.0491 18.3244 18.6435 18.3244 18.6435C18.3244 18.6435 17.8749 18.0597 17.7203 17.7655C17.5767 17.4923 17.3687 17.0648 17.2315 16.5836C17.0598 15.9816 17.0154 15.5042 17.0154 14.9929C17.0154 13.8455 17.2956 12.9765 18.012 11.9328C19.1075 10.337 20.6366 9.82869 22.5292 10.0487C23.7132 10.1863 24.6139 10.7416 25.3184 11.3157C25.8593 11.7564 26.329 12.2849 26.7069 12.8801C27.2075 13.6686 27.5471 14.5742 27.678 15.548C27.297 14.4855 26.7069 13.9027 25.9792 13.6549C26.5592 14.2 26.556 15.548 26.0125 15.9191C25.8496 16.0304 25.7137 16.0717 25.546 16.107C25.4498 16.1272 25.3501 16.1379 25.248 16.1379C24.6683 16.1379 24.1667 15.7951 23.9261 15.2966C23.8289 15.0952 23.7749 14.8249 23.7749 14.5851C23.5342 14.0866 23.0327 13.7438 22.453 13.7438C20.9538 13.7438 20.4794 14.6026 20.4794 15.5077C20.4799 16.4562 20.9851 17.0309 21.5938 17.7233C21.7044 17.8491 21.8184 17.9788 21.9334 18.1153C22.148 18.37 23.4619 19.6745 23.4619 19.6745ZM26.1866 16.6111C26.4034 17.337 26.7636 17.8616 27.444 18.4207C27.8743 18.7742 28.1857 18.9427 28.6857 19.1108C28.8069 19.1516 28.8935 19.1759 29 19.2019C28.923 19.1333 28.7172 18.9351 28.5596 18.7422C28.3059 18.4318 27.9838 17.8043 27.9838 17.8043C27.9838 17.8043 27.7617 17.2813 27.7312 16.9381C27.7287 16.9095 27.7264 16.8861 27.7243 16.8651C27.7186 16.8069 27.7147 16.7671 27.7128 16.6877C27.7097 16.5492 27.7089 16.4151 27.7082 16.2871C27.7077 16.1863 27.7071 16.0893 27.7054 15.997C27.7054 15.997 27.3733 16.0011 26.8899 16.1667C26.4066 16.3322 26.1866 16.6111 26.1866 16.6111Z" fill="#D0D2DD"/>
<path d="M40 18.9709C40 18.6272 40.2855 18.3485 40.6378 18.3485H42.4284C42.8329 18.3485 43.2135 18.5358 43.454 18.8532L49.6612 27.0442V18.9709C49.6612 18.6272 49.9467 18.3485 50.299 18.3485H51.8271C52.1793 18.3485 52.4649 18.6272 52.4649 18.9709V30.0291C52.4649 30.3728 52.1793 30.6515 51.8271 30.6515H49.9646C49.5603 30.6515 49.18 30.4645 48.9394 30.1474L42.8037 22.0603V30.0291C42.8037 30.3728 42.5182 30.6515 42.1659 30.6515H40.6378C40.2855 30.6515 40 30.3728 40 30.0291V18.9709Z" fill="#D0D2DD"/>
<path d="M64.1692 31C62.6096 31 61.2821 30.727 60.1868 30.181C59.0916 29.6349 58.282 28.8566 57.7582 27.8458C57.4962 27.4044 57.2998 26.899 57.1688 26.3298C57.0379 25.7605 56.9724 25.1506 56.9724 24.5C56.9724 23.3499 57.1748 22.345 57.5796 21.4853C58.0796 20.37 58.8951 19.5103 60.0261 18.9062C61.169 18.3021 62.556 18 64.187 18C65.8062 18 67.1812 18.3021 68.3122 18.9062C69.4432 19.4987 70.2587 20.3409 70.7588 21.433C71.1755 22.3159 71.3838 23.3382 71.3838 24.5C71.3838 25.685 71.1695 26.7248 70.7409 27.6193C70.229 28.6997 69.4075 29.5362 68.2765 30.1287C67.1574 30.7096 65.7883 31 64.1692 31ZM64.187 28.5777C65.1156 28.5777 65.8954 28.4093 66.5264 28.0724C67.1693 27.7355 67.6396 27.2475 67.9372 26.6086C68.1872 26.0161 68.3122 25.3132 68.3122 24.5C68.3122 24.0702 68.2765 23.6868 68.2051 23.3499C68.1456 23.0013 68.0503 22.676 67.9194 22.374C67.6217 21.7466 67.1515 21.2645 66.5086 20.9276C65.8776 20.5907 65.0978 20.4223 64.1692 20.4223C63.2406 20.4223 62.4608 20.5907 61.8298 20.9276C61.1988 21.2645 60.7345 21.7466 60.4369 22.374C60.3059 22.676 60.2047 23.0013 60.1333 23.3499C60.0737 23.6868 60.044 24.0702 60.044 24.5C60.044 25.3248 60.1749 26.0277 60.4369 26.6086C60.7345 27.2475 61.1988 27.7355 61.8298 28.0724C62.4727 28.4093 63.2584 28.5777 64.187 28.5777Z" fill="#D0D2DD"/>
<path d="M75.6582 18.9709C75.6582 18.6272 75.9438 18.3485 76.296 18.3485H77.8777C78.23 18.3485 78.5155 18.6272 78.5155 18.9709V28.0915C78.5155 28.206 78.6107 28.2989 78.7281 28.2989H82.5727C82.9249 28.2989 83.2105 28.5776 83.2105 28.9213V30.0291C83.2105 30.3728 82.9249 30.6515 82.5727 30.6515H76.296C75.9438 30.6515 75.6582 30.3728 75.6582 30.0291V18.9709Z" fill="#D0D2DD"/>
<path d="M94.1538 31C92.5942 31 91.2667 30.727 90.1714 30.181C89.0761 29.6349 88.2666 28.8566 87.7427 27.8458C87.4808 27.4044 87.2844 26.899 87.1534 26.3298C87.0225 25.7605 86.957 25.1506 86.957 24.5C86.957 23.3499 87.1594 22.345 87.5642 21.4853C88.0642 20.37 88.8797 19.5103 90.0107 18.9062C91.1536 18.3021 92.5406 18 94.1716 18C95.7907 18 97.1658 18.3021 98.2968 18.9062C99.4278 19.4987 100.243 20.3409 100.743 21.433C101.16 22.3159 101.368 23.3382 101.368 24.5C101.368 25.685 101.154 26.7248 100.726 27.6193C100.214 28.6997 99.3921 29.5362 98.2611 30.1287C97.142 30.7096 95.7729 31 94.1538 31ZM94.1716 28.5777C95.1002 28.5777 95.88 28.4093 96.511 28.0724C97.1539 27.7355 97.6242 27.2475 97.9218 26.6086C98.1718 26.0161 98.2968 25.3132 98.2968 24.5C98.2968 24.0702 98.2611 23.6868 98.1897 23.3499C98.1301 23.0013 98.0349 22.676 97.9039 22.374C97.6063 21.7466 97.136 21.2645 96.4932 20.9276C95.8622 20.5907 95.0824 20.4223 94.1538 20.4223C93.2252 20.4223 92.4453 20.5907 91.8144 20.9276C91.1834 21.2645 90.7191 21.7466 90.4214 22.374C90.2905 22.676 90.1893 23.0013 90.1179 23.3499C90.0583 23.6868 90.0286 24.0702 90.0286 24.5C90.0286 25.3248 90.1595 26.0277 90.4214 26.6086C90.7191 27.2475 91.1834 27.7355 91.8144 28.0724C92.4573 28.4093 93.243 28.5777 94.1716 28.5777Z" fill="#D0D2DD"/>
<path d="M108.951 25.3016L104.186 18.6751C104.087 18.5377 104.188 18.3485 104.36 18.3485H106.901C107.111 18.3485 107.308 18.4494 107.427 18.6183L110.38 22.8097L113.333 18.6183C113.452 18.4494 113.648 18.3485 113.858 18.3485H116.383C116.555 18.3485 116.656 18.5374 116.557 18.6749L111.808 25.3016V30.0291C111.808 30.3728 111.523 30.6515 111.171 30.6515H109.589C109.237 30.6515 108.951 30.3728 108.951 30.0291V25.3016Z" fill="#D0D2DD"/>
<path d="M126.801 31C125.241 31 123.914 30.727 122.818 30.181C121.723 29.6349 120.914 28.8566 120.39 27.8458C120.128 27.4044 119.931 26.899 119.8 26.3298C119.669 25.7605 119.604 25.1506 119.604 24.5C119.604 23.3499 119.806 22.345 120.211 21.4853C120.711 20.37 121.527 19.5103 122.658 18.9062C123.801 18.3021 125.188 18 126.819 18C128.438 18 129.813 18.3021 130.944 18.9062C132.075 19.4987 132.89 20.3409 133.39 21.433C133.807 22.3159 134.015 23.3382 134.015 24.5C134.015 25.685 133.801 26.7248 133.373 27.6193C132.861 28.6997 132.039 29.5362 130.908 30.1287C129.789 30.7096 128.42 31 126.801 31ZM126.819 28.5777C127.747 28.5777 128.527 28.4093 129.158 28.0724C129.801 27.7355 130.271 27.2475 130.569 26.6086C130.819 26.0161 130.944 25.3132 130.944 24.5C130.944 24.0702 130.908 23.6868 130.837 23.3499C130.777 23.0013 130.682 22.676 130.551 22.374C130.253 21.7466 129.783 21.2645 129.14 20.9276C128.509 20.5907 127.729 20.4223 126.801 20.4223C125.872 20.4223 125.092 20.5907 124.461 20.9276C123.83 21.2645 123.366 21.7466 123.068 22.374C122.937 22.676 122.836 23.0013 122.765 23.3499C122.705 23.6868 122.676 24.0702 122.676 24.5C122.676 25.3248 122.807 26.0277 123.068 26.6086C123.366 27.2475 123.83 27.7355 124.461 28.0724C125.104 28.4093 125.89 28.5777 126.819 28.5777Z" fill="#D0D2DD"/>
<path d="M138.29 18.9709C138.29 18.6272 138.575 18.3485 138.928 18.3485H140.509C140.862 18.3485 141.147 18.6272 141.147 18.9709V28.0915C141.147 28.206 141.242 28.2989 141.36 28.2989H145.204C145.557 28.2989 145.842 28.5776 145.842 28.9213V30.0291C145.842 30.3728 145.557 30.6515 145.204 30.6515H138.928C138.575 30.6515 138.29 30.3728 138.29 30.0291V18.9709Z" fill="#D0D2DD"/>
<path d="M156.785 31C155.226 31 153.898 30.727 152.803 30.181C151.708 29.6349 150.898 28.8566 150.374 27.8458C150.112 27.4044 149.916 26.899 149.785 26.3298C149.654 25.7605 149.589 25.1506 149.589 24.5C149.589 23.3499 149.791 22.345 150.196 21.4853C150.696 20.37 151.511 19.5103 152.642 18.9062C153.785 18.3021 155.172 18 156.803 18C158.422 18 159.797 18.3021 160.928 18.9062C162.059 19.4987 162.875 20.3409 163.375 21.433C163.792 22.3159 164 23.3382 164 24.5C164 25.685 163.786 26.7248 163.357 27.6193C162.845 28.6997 162.024 29.5362 160.893 30.1287C159.774 30.7096 158.404 31 156.785 31ZM156.803 28.5777C157.732 28.5777 158.512 28.4093 159.143 28.0724C159.786 27.7355 160.256 27.2475 160.553 26.6086C160.803 26.0161 160.928 25.3132 160.928 24.5C160.928 24.0702 160.893 23.6868 160.821 23.3499C160.762 23.0013 160.666 22.676 160.536 22.374C160.238 21.7466 159.768 21.2645 159.125 20.9276C158.494 20.5907 157.714 20.4223 156.785 20.4223C155.857 20.4223 155.077 20.5907 154.446 20.9276C153.815 21.2645 153.351 21.7466 153.053 22.374C152.922 22.676 152.821 23.0013 152.749 23.3499C152.69 23.6868 152.66 24.0702 152.66 24.5C152.66 25.3248 152.791 26.0277 153.053 26.6086C153.351 27.2475 153.815 27.7355 154.446 28.0724C155.089 28.4093 155.875 28.5777 156.803 28.5777Z" fill="#D0D2DD"/>
</svg>
