<svg width="88" height="88" viewBox="0 0 88 88" fill="none" xmlns="http://www.w3.org/2000/svg">
<path d="M4.125 88H42.625C43.384 88 44 87.384 44 86.625C44 85.866 43.384 85.25 42.625 85.25H4.125C3.366 85.25 2.75 84.634 2.75 83.875V4.125C2.75 3.366 3.366 2.75 4.125 2.75H61.875C62.634 2.75 63.25 3.366 63.25 4.125V17.875C63.25 18.634 63.866 19.25 64.625 19.25C65.384 19.25 66 18.634 66 17.875V4.125C66 1.85075 64.1493 0 61.875 0H4.125C1.85075 0 0 1.85075 0 4.125V83.875C0 86.1493 1.85075 88 4.125 88Z" fill="#ACAFC3"/>
<path d="M49.5 28.875V83.875C49.5 86.1493 51.3507 88 53.625 88H83.875C86.1493 88 88 86.1493 88 83.875V28.875C88 26.6007 86.1493 24.75 83.875 24.75H53.625C51.3507 24.75 49.5 26.6007 49.5 28.875ZM85.25 28.875V83.875C85.25 84.634 84.634 85.25 83.875 85.25H53.625C52.866 85.25 52.25 84.634 52.25 83.875V28.875C52.25 28.116 52.866 27.5 53.625 27.5H83.875C84.634 27.5 85.25 28.116 85.25 28.875Z" fill="#ACAFC3"/>
<path d="M33 79.75C34.5188 79.75 35.75 78.5188 35.75 77C35.75 75.4812 34.5188 74.25 33 74.25C31.4812 74.25 30.25 75.4812 30.25 77C30.25 78.5188 31.4812 79.75 33 79.75Z" fill="#ACAFC3"/>
<path d="M68.75 79.75C70.2688 79.75 71.5 78.5188 71.5 77C71.5 75.4812 70.2688 74.25 68.75 74.25C67.2312 74.25 66 75.4812 66 77C66 78.5188 67.2312 79.75 68.75 79.75Z" fill="#ACAFC3"/>
</svg>
