<svg width="20" height="20" viewBox="0 0 20 20" fill="none" xmlns="http://www.w3.org/2000/svg">
<path fill-rule="evenodd" clip-rule="evenodd" d="M15 5C15 7.76142 12.7614 10 10 10C7.23858 10 5 7.76142 5 5C5 2.23858 7.23858 0 10 0C12.7614 0 15 2.23858 15 5ZM14.1667 5C14.1667 7.30119 12.3012 9.16667 10 9.16667C7.69881 9.16667 5.83333 7.30119 5.83333 5C5.83333 2.69881 7.69881 0.833333 10 0.833333C12.3012 0.833333 14.1667 2.69881 14.1667 5Z" fill="#898DA9"/>
<path fill-rule="evenodd" clip-rule="evenodd" d="M5.11167 19.9999C3.33861 19.9999 2.01697 18.3651 2.38848 16.6314L2.94984 14.0117C3.52466 11.3292 6.65987 10.1141 8.89226 11.7087C9.5549 12.182 10.4451 12.182 11.1077 11.7087C13.3401 10.1141 16.4753 11.3292 17.0501 14.0117L17.6115 16.6314C17.983 18.3651 16.6613 19.9999 14.8883 19.9999H5.11167ZM14.8883 19.1666H5.11167C3.86914 19.1666 2.94297 18.0209 3.20331 16.806L3.76467 14.1863C4.21382 12.0903 6.66358 11.1409 8.40789 12.3868C9.36028 13.0671 10.6397 13.0671 11.5921 12.3868C13.3364 11.1409 15.7861 12.0903 16.2353 14.1863L16.7966 16.806C17.057 18.0209 16.1308 19.1666 14.8883 19.1666Z" fill="#898DA9"/>
</svg>
