<svg width="20" height="20" viewBox="0 0 20 20" fill="none" xmlns="http://www.w3.org/2000/svg">
<path d="M11.6667 11.2815C11.6667 11.6723 11.548 11.9955 11.3105 12.251C11.0779 12.5015 10.7526 12.6519 10.3348 12.702C10.3158 12.702 10.3063 12.712 10.3063 12.732L10.3134 13.2582C10.3134 13.3083 10.2896 13.3333 10.2422 13.3333H9.77207C9.72459 13.3333 9.70085 13.3083 9.70085 13.2582L9.70797 12.7245C9.70797 12.7045 9.69847 12.6945 9.67948 12.6945C9.25688 12.6343 8.92687 12.479 8.68945 12.2285C8.45204 11.9729 8.33333 11.6472 8.33333 11.2514V11.0334C8.33333 10.9833 8.35707 10.9583 8.40455 10.9583H8.89601C8.94349 10.9583 8.96723 10.9833 8.96723 11.0334V11.2138C8.96723 11.4694 9.06695 11.6798 9.26638 11.8451C9.46581 12.0105 9.73646 12.0932 10.0783 12.0932C10.387 12.0932 10.6197 12.0205 10.7763 11.8752C10.9378 11.7299 11.0185 11.5395 11.0185 11.304C11.0185 11.1487 10.9782 11.0159 10.8974 10.9057C10.8167 10.7954 10.698 10.6952 10.5413 10.605C10.3846 10.5098 10.1567 10.3971 9.85754 10.2668C9.52516 10.1265 9.264 9.99873 9.07407 9.88348C8.88414 9.76824 8.72507 9.61792 8.59686 9.43252C8.4734 9.24212 8.41167 9.00411 8.41167 8.71851C8.41167 8.3377 8.52326 8.02954 8.74643 7.79404C8.9696 7.55353 9.2735 7.40572 9.65811 7.3506C9.67711 7.3506 9.6866 7.34058 9.6866 7.32054L9.67948 6.74181C9.67948 6.6917 9.70322 6.66665 9.75071 6.66665H10.2137C10.2612 6.66665 10.2849 6.6917 10.2849 6.74181L10.2778 7.32805C10.2778 7.34809 10.2873 7.36062 10.3063 7.36563C10.7146 7.42576 11.0351 7.5861 11.2678 7.84665C11.5052 8.10721 11.6239 8.4354 11.6239 8.83125V8.98156C11.6239 9.03167 11.6002 9.05672 11.5527 9.05672H11.0541C11.0066 9.05672 10.9829 9.03167 10.9829 8.98156V8.86882C10.9829 8.60827 10.8903 8.39281 10.7051 8.22245C10.5199 8.04708 10.2612 7.95939 9.92877 7.95939C9.64862 7.95939 9.43257 8.02453 9.28062 8.15481C9.12867 8.28007 9.0527 8.46296 9.0527 8.70347C9.0527 8.86882 9.09069 9.00411 9.16666 9.10934C9.24738 9.21456 9.36134 9.30976 9.50854 9.39494C9.66049 9.47511 9.89078 9.58034 10.1994 9.71061C10.5223 9.85091 10.7811 9.98119 10.9758 10.1014C11.1752 10.2167 11.339 10.372 11.4672 10.5674C11.6002 10.7578 11.6667 10.9958 11.6667 11.2815Z" fill="#898DA9"/>
<path d="M4.99999 9.99994C4.99999 8.14923 6.00549 6.53337 7.49999 5.66885V4.72797C5.5292 5.66419 4.16666 7.67294 4.16666 9.99994C4.16666 12.3269 5.5292 14.3357 7.49999 15.2719V14.331C6.00549 13.4665 4.99999 11.8506 4.99999 9.99994Z" fill="#898DA9"/>
<path d="M12.5 5.66885V4.72797C14.4708 5.66419 15.8333 7.67294 15.8333 9.99994C15.8333 12.3269 14.4708 14.3357 12.5 15.2719V14.331C13.9945 13.4665 15 11.8506 15 9.99994C15 8.14923 13.9945 6.53337 12.5 5.66885Z" fill="#898DA9"/>
<path fill-rule="evenodd" clip-rule="evenodd" d="M9.99999 19.1666C15.0626 19.1666 19.1667 15.0626 19.1667 9.99998C19.1667 4.93737 15.0626 0.833313 9.99999 0.833313C4.93738 0.833313 0.833328 4.93737 0.833328 9.99998C0.833328 15.0626 4.93738 19.1666 9.99999 19.1666ZM9.99999 18.3333C14.6024 18.3333 18.3333 14.6024 18.3333 9.99998C18.3333 5.39761 14.6024 1.66665 9.99999 1.66665C5.39762 1.66665 1.66666 5.39761 1.66666 9.99998C1.66666 14.6024 5.39762 18.3333 9.99999 18.3333Z" fill="#898DA9"/>
</svg>
